<svg width="30" height="30" viewBox="0 0 30 30" fill="none" xmlns="http://www.w3.org/2000/svg">
<g clip-path="url(#clip0_28_2)">
<path d="M7.2 0C3.2625 0 1.8 1.30078 1.8 4.8V24.6C1.8 25.4156 2.03906 26.0039 2.4 26.4375V28.2C2.4 29.1914 3.20859 30 4.2 30H6.6C7.59141 30 8.4 29.1914 8.4 28.2V27.6H21.6V28.2C21.6 29.1914 22.4086 30 23.4 30H25.8C26.7914 30 27.6 29.1914 27.6 28.2V26.4375C27.9609 26.0039 28.2 25.4156 28.2 24.6V5.4C28.2 2.78672 27.8766 0 24 0H7.2ZM9 2.4H21.6C21.9328 2.4 22.2 2.66953 22.2 3V4.2C22.2 4.53047 21.9328 4.8 21.6 4.8H9C8.66953 4.8 8.4 4.53047 8.4 4.2V3C8.4 2.66953 8.66953 2.4 9 2.4ZM6.6 6.6H23.4C24.6 6.6 25.2 7.2 25.2 8.4V15.6C25.2 16.8 24.0281 17.3625 23.4 17.3625L6.6 17.4C5.4 17.4 4.8 16.8 4.8 15.6V8.4C4.8 7.2 5.4 6.6 6.6 6.6ZM1.2 7.2C0.539063 7.2 0 7.73906 0 8.4V13.2C0 13.8609 0.539063 14.4 1.2 14.4V7.2ZM28.8 7.2V14.4C29.4633 14.4 30 13.8609 30 13.2V8.4C30 7.73906 29.4633 7.2 28.8 7.2ZM6.9 20.4C8.06016 20.4 9 21.3398 9 22.5C9 23.6602 8.06016 24.6 6.9 24.6C5.73984 24.6 4.8 23.6602 4.8 22.5C4.8 21.3398 5.73984 20.4 6.9 20.4ZM23.1 20.4C24.2602 20.4 25.2 21.3398 25.2 22.5C25.2 23.6602 24.2602 24.6 23.1 24.6C21.9398 24.6 21 23.6602 21 22.5C21 21.3398 21.9398 20.4 23.1 20.4Z" fill="#D7318A"/>
<path d="M4 7C4 6.44772 4.44772 6 5 6H25C25.5523 6 26 6.44772 26 7V17C26 17.5523 25.5523 18 25 18H5C4.44772 18 4 17.5523 4 17V7Z" fill="white"/>
<path d="M7 2.5C7 2.22386 7.22386 2 7.5 2H22.5C22.7761 2 23 2.22386 23 2.5V4.5C23 4.77614 22.7761 5 22.5 5H7.5C7.22386 5 7 4.77614 7 4.5V2.5Z" fill="white"/>
<path d="M9 22.5C9 23.8807 7.88071 25 6.5 25C5.11929 25 4 23.8807 4 22.5C4 21.1193 5.11929 20 6.5 20C7.88071 20 9 21.1193 9 22.5Z" fill="white"/>
<path d="M26 22.5C26 23.8807 24.8807 25 23.5 25C22.1193 25 21 23.8807 21 22.5C21 21.1193 22.1193 20 23.5 20C24.8807 20 26 21.1193 26 22.5Z" fill="white"/>
</g>
<defs>
<clipPath id="clip0_28_2">
<rect width="30" height="30" fill="white"/>
</clipPath>
</defs>
</svg>
