<svg width="50" height="50" viewBox="0 0 50 50" fill="none" xmlns="http://www.w3.org/2000/svg">
<g clip-path="url(#clip0_28_13)">
<path d="M12 0C5.4375 0 3 2.16797 3 8V41C3 42.3594 3.39844 43.3398 4 44.0625V47C4 48.6523 5.34766 50 7 50H11C12.6523 50 14 48.6523 14 47V46H36V47C36 48.6523 37.3477 50 39 50H43C44.6523 50 46 48.6523 46 47V44.0625C46.6016 43.3398 47 42.3594 47 41V9C47 4.64453 46.4609 0 40 0H12ZM15 4H36C36.5547 4 37 4.44922 37 5V7C37 7.55078 36.5547 8 36 8H15C14.4492 8 14 7.55078 14 7V5C14 4.44922 14.4492 4 15 4ZM11 11H39C41 11 42 12 42 14V26C42 28 40.0469 28.9375 39 28.9375L11 29C9 29 8 28 8 26V14C8 12 9 11 11 11ZM2 12C0.898438 12 0 12.8984 0 14V22C0 23.1016 0.898438 24 2 24V12ZM48 12V24C49.1055 24 50 23.1016 50 22V14C50 12.8984 49.1055 12 48 12ZM11.5 34C13.4336 34 15 35.5664 15 37.5C15 39.4336 13.4336 41 11.5 41C9.56641 41 8 39.4336 8 37.5C8 35.5664 9.56641 34 11.5 34ZM38.5 34C40.4336 34 42 35.5664 42 37.5C42 39.4336 40.4336 41 38.5 41C36.5664 41 35 39.4336 35 37.5C35 35.5664 36.5664 34 38.5 34Z" fill="#D7318A"/>
<path d="M6.66667 11.6667C6.66667 10.7462 7.41286 10 8.33333 10H41.6667C42.5871 10 43.3333 10.7462 43.3333 11.6667V28.3333C43.3333 29.2538 42.5871 30 41.6667 30H8.33333C7.41286 30 6.66667 29.2538 6.66667 28.3333V11.6667Z" fill="white"/>
<path d="M11.6667 4.16667C11.6667 3.70643 12.0398 3.33333 12.5 3.33333H37.5C37.9602 3.33333 38.3333 3.70643 38.3333 4.16667V7.5C38.3333 7.96024 37.9602 8.33333 37.5 8.33333H12.5C12.0398 8.33333 11.6667 7.96024 11.6667 7.5V4.16667Z" fill="white"/>
<path d="M15 37.5C15 39.8012 13.1345 41.6667 10.8333 41.6667C8.53215 41.6667 6.66667 39.8012 6.66667 37.5C6.66667 35.1988 8.53215 33.3333 10.8333 33.3333C13.1345 33.3333 15 35.1988 15 37.5Z" fill="white"/>
<path d="M43.3333 37.5C43.3333 39.8012 41.4679 41.6667 39.1667 41.6667C36.8655 41.6667 35 39.8012 35 37.5C35 35.1988 36.8655 33.3333 39.1667 33.3333C41.4679 33.3333 43.3333 35.1988 43.3333 37.5Z" fill="white"/>
</g>
<defs>
<clipPath id="clip0_28_13">
<rect width="50" height="50" fill="white"/>
</clipPath>
</defs>
</svg>
