<svg xmlns="http://www.w3.org/2000/svg" viewBox="0 0 88.75 16.74"><defs><style>.cls-1{fill:#232323;}.cls-2{fill:#fff;}</style></defs><g id="Capa_2" data-name="Capa 2"><g id="Capa_1-2" data-name="Capa 1"><path class="cls-1" d="M66.56,11.32l5.9,5H68.89l-5.37-4.51v4.51H61V6.92h2.57v4l4.88-4H72Z"/><path class="cls-1" d="M82.93,16.15H80.7l-3.25-5.3v5.44H74.94V6.92H77.6l4.28,6.91,4.29-6.91h2.58v9.37H86.17V10.85Z"/><path class="cls-2" d="M30.58,6.36v6.51a3.11,3.11,0,0,1-1,2.27,3.62,3.62,0,0,1-2.67,1H22.31a3.63,3.63,0,0,1-2.66-1,3.07,3.07,0,0,1-1-2.27V6.36h2.7v6.12a1.32,1.32,0,0,0,.46,1,1.76,1.76,0,0,0,1.18.4h3.25a1.68,1.68,0,0,0,1.17-.4,1.3,1.3,0,0,0,.47-1V6.36Z"/><path class="cls-2" d="M42.2,10.33H36.11a.87.87,0,0,1,0-1.74h5A3.37,3.37,0,0,0,44.3,6.36H35.6a3.06,3.06,0,0,0,0,6.1h6a.78.78,0,0,1,.81.76.76.76,0,0,1-.73.79H33.62l-.74,2.11h9.23A2.83,2.83,0,0,0,45,13.37,2.87,2.87,0,0,0,42.2,10.33Z"/><path class="cls-2" d="M56.44,10.33H50.35a.87.87,0,0,1,0-1.74h5a3.38,3.38,0,0,0,3.18-2.23H49.83a3.06,3.06,0,0,0,.06,6.1h6a.78.78,0,0,1,.81.76A.76.76,0,0,1,56,14H47.86l-.74,2.11h9.23a2.83,2.83,0,0,0,2.84-2.75A2.87,2.87,0,0,0,56.44,10.33Z"/><path class="cls-2" d="M58.63,1.31,59.41,0H10.62l-.5.06A40.05,40.05,0,0,0,5.63.93c-1.12.28-1.19.45-1.56,1.28L4,2.45l-1.29.19L.59,3.42l-.14.05a.33.33,0,0,0-.12.14C.21,4-.28,6.33.22,6.4a.35.35,0,0,0,.4-.24L1.38,4c.26-.73.25-.61,1.28-.93L3.73,3l0,.09c-.31.78-.6,1.57-.84,2.37l-.18.6A33.1,33.1,0,0,0,1.46,16.35a13.43,13.43,0,0,0,3.36.39h6a6.37,6.37,0,0,0,3.48-.68,4.51,4.51,0,0,0,1.43-2.88l.74-3.55h0a2.87,2.87,0,0,0,0-.39c0-.71-.25-1.15-.75-1.31A2.25,2.25,0,0,0,17.26,6l0-.13L17.9,3,39.22,3H57.86l.77-1H39.22l-21.08,0,.13-.6H58.63ZM3.15,13.73H2.24c0-.45,0-.9.07-1.35h.84a.68.68,0,1,1,0,1.35Zm3.35,0H4a1.06,1.06,0,0,0,.24-.67A1.08,1.08,0,0,0,3.15,12H3c0-.46.08-.85.14-1.25C3.33,9,4.67,9.27,6.5,9.27Zm.59,0H6.9V7.36c-1.34,0-3.34,0-3.89.47.07-.33.16-.67.25-1l.21-.77.19-.6q.39-1.25.9-2.46H7.67a14.43,14.43,0,0,0-.58,3.83Zm5.64-3.67a4.77,4.77,0,0,1-.09.85V11a4.43,4.43,0,0,0-4,2.73H7.5c0-.7,0-4.43,0-4.46h3.69a5.78,5.78,0,0,1,1,.05.72.72,0,0,1,.6.65Zm1.75-6a2.32,2.32,0,0,1-.61,1.38,5.9,5.9,0,0,1-2.16.36c-1.16,0-1.13.18-1.6.84a1.6,1.6,0,0,1-1.66.74h-1V6.83a10.27,10.27,0,0,1,.11-1.57c.1-.73.28-1.46.45-2.17L8,3h4.78a6.1,6.1,0,0,1,1.08,0,.71.71,0,0,1,.61.73C14.5,3.86,14.49,3.94,14.48,4Z"/></g></g></svg>