<svg xmlns="http://www.w3.org/2000/svg" width="64" height="64" viewBox="0 0 370 370" fill="currentColor">
  <g>
    <path d="M235,270h-2.208C207.371,300.107,185,320,185,320s-22.371-19.893-47.792-50H135
      c-27.614,0-50,22.386-50,50s22.386,50,50,50h100c27.614,0,50-22.386,50-50S262.614,270,235,270z"/>
    <path d="M185,320V160c-22.091,0-40-17.91-40-40c0-22.092,17.909-40,40-40V0
      C118.727,0,65,53.727,65,120c0,53.037,38.748,110.371,72.208,150C162.629,300.107,185,320,185,320z"/>
    <path d="M225,120c0,22.09-17.909,40-40,40v160c0,0,22.371-19.893,47.792-50
      C266.252,230.371,305,173.037,305,120C305,53.727,251.273,0,185,0v80C207.091,80,225,97.908,225,120z"/>
    <circle cx="185" cy="120" r="40" fill="#ffffff"/>
  </g>
</svg>
